# xmcd
#
# Track frame offsets:
#	150
#	17915
#	33217
#	48960
#	63333
#	77115
#	93626
#	110578
#	125571
#	143902
#	162140
#	178975
#	197772
#	214340
#	228569
#	243299
#	261516
#	280048
#	293598
#	310252
#	326582
#	345826
#
# Disc length: 4801 seconds
# Revision: 0
# Processed by: cddbd v1.5.2PL0 Copyright (c) Steve Scherf et al.
# Submitted via: dBpowerAMP V12.0
#
DISCID=4412bf16
DTITLE=Various Artist - Gnadenlos Sommer Folge6 CD2
DYEAR=2003
DGENRE=Discofox
TTITLE0=Bernd Berger - ...geil!
TTITLE1=Tommy Fischer - Was ist falsch
TTITLE2=Modern Talking - New York City Girl
TTITLE3=Sandy Wagner - Du ruinierst mir meinen schlechten Ruf
TTITLE4=Bernhard Brink - Vorbei ist vorbei
TTITLE5=Costa Cordalis - Fiesta Amor
TTITLE6=Jürgen Drews - Alles was ich will
TTITLE7=Modern Talking - SMS to my Heart
TTITLE8=Bernd Rusinsky - Wir tanzten einen Sommer lang
TTITLE9=Brunner and Brunner - Wir sind alle über 40
TTITLE10=Jens Bogner - Samstag Abend
TTITLE11=Andrea Berg - Andrea Berg Partymix
TTITLE12=Cordalis - Viva la Noche 97
TTITLE13=Andrea Jürgens - Schenk' mir eine Nacht (Una noche)
TTITLE14=Klaus Densow - Nur mit dir
TTITLE15=Modern Talking - Who will love you like I do
TTITLE16=Mike Bauhaus - Es fährt ein Zug (Reloaded)
TTITLE17=Patrick Lindner - Playa del Sol
TTITLE18=Mary Roos - Im Lauf der Zeit
TTITLE19=Matthias Reim - Verdammt ich lieb' dich
TTITLE20=Marianne Rosenberg - Marleen
TTITLE21=Die Flippers - Sie will einen Italiener
EXTD=
EXTT0=
EXTT1=
EXTT2=
EXTT3=
EXTT4=
EXTT5=
EXTT6=
EXTT7=
EXTT8=
EXTT9=
EXTT10=
EXTT11=
EXTT12=
EXTT13=
EXTT14=
EXTT15=
EXTT16=
EXTT17=
EXTT18=
EXTT19=
EXTT20=
EXTT21=
PLAYORDER=
